<svg width="140" height="32" viewBox="0 0 140 32" fill="none" xmlns="http://www.w3.org/2000/svg">
<path d="M41.2912 24V10.9091H49.8054V12.897H43.6626V16.451H49.3643V18.4389H43.6626V22.0121H49.8565V24H41.2912ZM59.8825 16.777L57.7731 17.0071C57.7134 16.794 57.609 16.5938 57.4599 16.4062C57.315 16.2188 57.119 16.0675 56.8718 15.9524C56.6246 15.8374 56.3221 15.7798 55.9641 15.7798C55.4826 15.7798 55.0778 15.8842 54.7496 16.093C54.4258 16.3018 54.266 16.5724 54.2702 16.9048C54.266 17.1903 54.3704 17.4226 54.5835 17.6016C54.8008 17.7805 55.1587 17.9276 55.6573 18.0426L57.332 18.4006C58.261 18.6009 58.9513 18.9183 59.4031 19.353C59.859 19.7876 60.0891 20.3565 60.0934 21.0597C60.0891 21.6776 59.908 22.223 59.5501 22.696C59.1964 23.1648 58.7042 23.5312 58.0735 23.7955C57.4428 24.0597 56.7184 24.1918 55.9002 24.1918C54.6985 24.1918 53.7312 23.9403 52.9982 23.4375C52.2653 22.9304 51.8285 22.2251 51.6879 21.3217L53.9442 21.1044C54.0465 21.5476 54.2638 21.8821 54.5962 22.108C54.9286 22.3338 55.3612 22.4467 55.8938 22.4467C56.4435 22.4467 56.8846 22.3338 57.217 22.108C57.5536 21.8821 57.7219 21.603 57.7219 21.2706C57.7219 20.9893 57.6133 20.7571 57.396 20.5739C57.1829 20.3906 56.8505 20.25 56.3988 20.152L54.7241 19.8004C53.7823 19.6044 53.0856 19.2741 52.6339 18.8097C52.1822 18.3409 51.9585 17.7486 51.9627 17.0327C51.9585 16.4276 52.1225 15.9034 52.4549 15.4602C52.7915 15.0128 53.2582 14.6676 53.8548 14.4247C54.4556 14.1776 55.1481 14.054 55.9322 14.054C57.0827 14.054 57.9883 14.299 58.6488 14.7891C59.3136 15.2791 59.7248 15.9418 59.8825 16.777ZM66.9041 14.1818V15.9716H61.2599V14.1818H66.9041ZM62.6534 11.8295H64.9673V21.0469C64.9673 21.358 65.0142 21.5966 65.108 21.7628C65.206 21.9247 65.3338 22.0355 65.4915 22.0952C65.6491 22.1548 65.8239 22.1847 66.0156 22.1847C66.1605 22.1847 66.2926 22.174 66.4119 22.1527C66.5355 22.1314 66.6293 22.1122 66.6932 22.0952L67.0831 23.9041C66.9595 23.9467 66.7827 23.9936 66.5526 24.0447C66.3267 24.0959 66.0497 24.1257 65.7216 24.1342C65.142 24.1513 64.62 24.0639 64.1555 23.8722C63.6911 23.6761 63.3224 23.3736 63.0497 22.9645C62.7813 22.5554 62.6491 22.044 62.6534 21.4304V11.8295ZM71.6646 24.1982C71.0424 24.1982 70.4821 24.0874 69.9835 23.8658C69.4892 23.6399 69.0971 23.3075 68.8074 22.8686C68.5218 22.4297 68.3791 21.8885 68.3791 21.245C68.3791 20.6911 68.4814 20.233 68.6859 19.8707C68.8904 19.5085 69.1696 19.2188 69.5233 19.0014C69.877 18.7841 70.2754 18.62 70.7186 18.5092C71.166 18.3942 71.6284 18.3111 72.1056 18.2599C72.6809 18.2003 73.1475 18.147 73.5055 18.1001C73.8635 18.049 74.1234 17.9723 74.2853 17.87C74.4515 17.7635 74.5346 17.5994 74.5346 17.3778V17.3395C74.5346 16.858 74.3919 16.4851 74.1064 16.2209C73.8208 15.9567 73.4096 15.8246 72.8727 15.8246C72.3059 15.8246 71.8564 15.9482 71.524 16.1953C71.1958 16.4425 70.9743 16.7344 70.8592 17.071L68.6987 16.7642C68.8691 16.1676 69.1504 15.669 69.5424 15.2685C69.9345 14.8636 70.4139 14.5611 70.9806 14.3608C71.5474 14.1562 72.1738 14.054 72.8599 14.054C73.3329 14.054 73.8038 14.1094 74.2726 14.2202C74.7413 14.331 75.1696 14.5142 75.5574 14.7699C75.9451 15.0213 76.2562 15.3643 76.4906 15.799C76.7292 16.2337 76.8485 16.777 76.8485 17.429V24H74.6241V22.6513H74.5474C74.4068 22.924 74.2086 23.1797 73.9529 23.4183C73.7015 23.6527 73.3841 23.8423 73.0005 23.9872C72.6213 24.1278 72.176 24.1982 71.6646 24.1982ZM72.2654 22.4979C72.7299 22.4979 73.1326 22.4062 73.4735 22.223C73.8145 22.0355 74.0765 21.7884 74.2598 21.4815C74.4473 21.1747 74.541 20.8402 74.541 20.478V19.321C74.4686 19.3807 74.345 19.4361 74.1703 19.4872C73.9998 19.5384 73.8081 19.5831 73.595 19.6214C73.3819 19.6598 73.171 19.6939 72.9622 19.7237C72.7534 19.7536 72.5723 19.7791 72.4189 19.8004C72.0737 19.8473 71.7647 19.924 71.492 20.0305C71.2193 20.1371 71.0041 20.2862 70.8464 20.478C70.6887 20.6655 70.6099 20.9084 70.6099 21.2067C70.6099 21.6328 70.7654 21.9545 71.0765 22.1719C71.3876 22.3892 71.7839 22.4979 72.2654 22.4979ZM84.0779 14.1818V15.9716H78.4338V14.1818H84.0779ZM79.8272 11.8295H82.1412V21.0469C82.1412 21.358 82.188 21.5966 82.2818 21.7628C82.3798 21.9247 82.5076 22.0355 82.6653 22.0952C82.823 22.1548 82.9977 22.1847 83.1895 22.1847C83.3343 22.1847 83.4664 22.174 83.5858 22.1527C83.7093 22.1314 83.8031 22.1122 83.867 22.0952L84.2569 23.9041C84.1333 23.9467 83.9565 23.9936 83.7264 24.0447C83.5005 24.0959 83.2235 24.1257 82.8954 24.1342C82.3159 24.1513 81.7939 24.0639 81.3294 23.8722C80.8649 23.6761 80.4963 23.3736 80.2235 22.9645C79.9551 22.5554 79.823 22.044 79.8272 21.4304V11.8295ZM90.2543 24.1918C89.2699 24.1918 88.4197 23.9872 87.7038 23.5781C86.9922 23.1648 86.4446 22.581 86.0611 21.8267C85.6776 21.0682 85.4858 20.1754 85.4858 19.1484C85.4858 18.1385 85.6776 17.2521 86.0611 16.4893C86.4489 15.7223 86.9901 15.1257 87.6847 14.6996C88.3793 14.2692 89.1953 14.054 90.1328 14.054C90.7379 14.054 91.3089 14.152 91.8459 14.348C92.3871 14.5398 92.8643 14.8381 93.2777 15.2429C93.6953 15.6477 94.0234 16.1634 94.2621 16.7898C94.5007 17.4119 94.62 18.1534 94.62 19.0142V19.7237H86.5724V18.1641H92.402C92.3977 17.7209 92.3018 17.3267 92.1143 16.9815C91.9268 16.6321 91.6648 16.3572 91.3281 16.157C90.9957 15.9567 90.608 15.8565 90.1648 15.8565C89.6918 15.8565 89.2763 15.9716 88.9183 16.2017C88.5604 16.4276 88.2813 16.7259 88.081 17.0966C87.8849 17.4631 87.7848 17.8658 87.7805 18.3047V19.6662C87.7805 20.2372 87.8849 20.7273 88.0938 21.1364C88.3026 21.5412 88.5945 21.8523 88.9695 22.0696C89.3445 22.2827 89.7834 22.3892 90.2862 22.3892C90.6229 22.3892 90.9276 22.3423 91.2003 22.2486C91.473 22.1506 91.7095 22.0078 91.9098 21.8203C92.1101 21.6328 92.2614 21.4006 92.3636 21.1236L94.5241 21.3665C94.3878 21.9375 94.1278 22.4361 93.7443 22.8622C93.3651 23.2841 92.8793 23.6122 92.2869 23.8466C91.6946 24.0767 91.017 24.1918 90.2543 24.1918ZM97.5172 10.9091L100.924 21.2131H101.058L104.459 10.9091H107.067L102.452 24H99.5243L94.9157 10.9091H97.5172ZM108.689 24V14.1818H111.003V24H108.689ZM109.852 12.7884C109.486 12.7884 109.17 12.6669 108.906 12.424C108.642 12.1768 108.51 11.8807 108.51 11.5355C108.51 11.1861 108.642 10.8899 108.906 10.647C109.17 10.3999 109.486 10.2763 109.852 10.2763C110.223 10.2763 110.538 10.3999 110.798 10.647C111.063 10.8899 111.195 11.1861 111.195 11.5355C111.195 11.8807 111.063 12.1768 110.798 12.424C110.538 12.6669 110.223 12.7884 109.852 12.7884ZM121.142 16.777L119.033 17.0071C118.973 16.794 118.869 16.5938 118.72 16.4062C118.575 16.2188 118.379 16.0675 118.132 15.9524C117.884 15.8374 117.582 15.7798 117.224 15.7798C116.742 15.7798 116.338 15.8842 116.009 16.093C115.686 16.3018 115.526 16.5724 115.53 16.9048C115.526 17.1903 115.63 17.4226 115.843 17.6016C116.061 17.7805 116.419 17.9276 116.917 18.0426L118.592 18.4006C119.521 18.6009 120.211 18.9183 120.663 19.353C121.119 19.7876 121.349 20.3565 121.353 21.0597C121.349 21.6776 121.168 22.223 120.81 22.696C120.456 23.1648 119.964 23.5312 119.333 23.7955C118.703 24.0597 117.978 24.1918 117.16 24.1918C115.958 24.1918 114.991 23.9403 114.258 23.4375C113.525 22.9304 113.088 22.2251 112.948 21.3217L115.204 21.1044C115.306 21.5476 115.524 21.8821 115.856 22.108C116.188 22.3338 116.621 22.4467 117.154 22.4467C117.703 22.4467 118.144 22.3338 118.477 22.108C118.813 21.8821 118.982 21.603 118.982 21.2706C118.982 20.9893 118.873 20.7571 118.656 20.5739C118.443 20.3906 118.11 20.25 117.659 20.152L115.984 19.8004C115.042 19.6044 114.345 19.2741 113.894 18.8097C113.442 18.3409 113.218 17.7486 113.222 17.0327C113.218 16.4276 113.382 15.9034 113.715 15.4602C114.051 15.0128 114.518 14.6676 115.115 14.4247C115.715 14.1776 116.408 14.054 117.192 14.054C118.343 14.054 119.248 14.299 119.909 14.7891C120.573 15.2791 120.985 15.9418 121.142 16.777ZM128.164 14.1818V15.9716H122.52V14.1818H128.164ZM123.913 11.8295H126.227V21.0469C126.227 21.358 126.274 21.5966 126.368 21.7628C126.466 21.9247 126.594 22.0355 126.751 22.0952C126.909 22.1548 127.084 22.1847 127.275 22.1847C127.42 22.1847 127.552 22.174 127.672 22.1527C127.795 22.1314 127.889 22.1122 127.953 22.0952L128.343 23.9041C128.219 23.9467 128.042 23.9936 127.812 24.0447C127.586 24.0959 127.309 24.1257 126.981 24.1342C126.402 24.1513 125.88 24.0639 125.415 23.8722C124.951 23.6761 124.582 23.3736 124.309 22.9645C124.041 22.5554 123.909 22.044 123.913 21.4304V11.8295ZM132.924 24.1982C132.302 24.1982 131.742 24.0874 131.243 23.8658C130.749 23.6399 130.357 23.3075 130.067 22.8686C129.782 22.4297 129.639 21.8885 129.639 21.245C129.639 20.6911 129.741 20.233 129.946 19.8707C130.15 19.5085 130.429 19.2188 130.783 19.0014C131.137 18.7841 131.535 18.62 131.978 18.5092C132.426 18.3942 132.888 18.3111 133.365 18.2599C133.941 18.2003 134.407 18.147 134.765 18.1001C135.123 18.049 135.383 17.9723 135.545 17.87C135.711 17.7635 135.794 17.5994 135.794 17.3778V17.3395C135.794 16.858 135.652 16.4851 135.366 16.2209C135.081 15.9567 134.669 15.8246 134.132 15.8246C133.566 15.8246 133.116 15.9482 132.784 16.1953C132.456 16.4425 132.234 16.7344 132.119 17.071L129.958 16.7642C130.129 16.1676 130.41 15.669 130.802 15.2685C131.194 14.8636 131.674 14.5611 132.24 14.3608C132.807 14.1562 133.434 14.054 134.12 14.054C134.593 14.054 135.064 14.1094 135.532 14.2202C136.001 14.331 136.429 14.5142 136.817 14.7699C137.205 15.0213 137.516 15.3643 137.75 15.799C137.989 16.2337 138.108 16.777 138.108 17.429V24H135.884V22.6513H135.807C135.667 22.924 135.468 23.1797 135.213 23.4183C134.961 23.6527 134.644 23.8423 134.26 23.9872C133.881 24.1278 133.436 24.1982 132.924 24.1982ZM133.525 22.4979C133.99 22.4979 134.392 22.4062 134.733 22.223C135.074 22.0355 135.336 21.7884 135.52 21.4815C135.707 21.1747 135.801 20.8402 135.801 20.478V19.321C135.728 19.3807 135.605 19.4361 135.43 19.4872C135.26 19.5384 135.068 19.5831 134.855 19.6214C134.642 19.6598 134.431 19.6939 134.222 19.7237C134.013 19.7536 133.832 19.7791 133.679 19.8004C133.333 19.8473 133.025 19.924 132.752 20.0305C132.479 20.1371 132.264 20.2862 132.106 20.478C131.949 20.6655 131.87 20.9084 131.87 21.2067C131.87 21.6328 132.025 21.9545 132.336 22.1719C132.647 22.3892 133.044 22.4979 133.525 22.4979Z" fill="#343434"/>
<path d="M15.7704 10.7074L6.71555 18.1651V26.2142C6.71555 26.4226 6.79834 26.6225 6.9457 26.7698C7.09307 26.9172 7.29294 27 7.50135 27L13.0049 26.9858C13.2126 26.9847 13.4115 26.9015 13.558 26.7542C13.7045 26.607 13.7868 26.4077 13.7868 26.2V21.4994C13.7868 21.291 13.8696 21.0911 14.0169 20.9437C14.1643 20.7964 14.3642 20.7136 14.5726 20.7136H17.7158C17.9242 20.7136 18.1241 20.7964 18.2714 20.9437C18.4188 21.0911 18.5016 21.291 18.5016 21.4994V26.1965C18.5013 26.2999 18.5214 26.4024 18.5607 26.498C18.6001 26.5936 18.6579 26.6805 18.7309 26.7538C18.8039 26.827 18.8906 26.8851 18.9861 26.9247C19.0816 26.9644 19.184 26.9848 19.2874 26.9848L24.789 27C24.9974 27 25.1973 26.9172 25.3446 26.7698C25.492 26.6225 25.5748 26.4226 25.5748 26.2142V18.1597L16.5219 10.7074C16.4154 10.6216 16.2829 10.5748 16.1462 10.5748C16.0095 10.5748 15.8769 10.6216 15.7704 10.7074ZM30.0735 15.7763L25.9677 12.3919V5.58935C25.9677 5.43305 25.9056 5.28314 25.7951 5.17262C25.6846 5.06209 25.5347 5 25.3783 5H22.628C22.4717 5 22.3218 5.06209 22.2113 5.17262C22.1008 5.28314 22.0387 5.43305 22.0387 5.58935V9.15542L17.6416 5.53778C17.2197 5.19055 16.6902 5.00069 16.1437 5.00069C15.5972 5.00069 15.0677 5.19055 14.6458 5.53778L2.21388 15.7763C2.15421 15.8256 2.10483 15.8862 2.06858 15.9546C2.03233 16.023 2.00992 16.0979 2.00262 16.175C1.99533 16.2521 2.00329 16.3299 2.02605 16.4039C2.04882 16.4779 2.08594 16.5466 2.1353 16.6063L3.38768 18.1288C3.4369 18.1886 3.49745 18.2382 3.56586 18.2746C3.63426 18.3111 3.70918 18.3336 3.78632 18.3411C3.86346 18.3485 3.94131 18.3407 4.01541 18.318C4.08952 18.2953 4.15842 18.2582 4.21817 18.2088L15.7704 8.69376C15.8769 8.60797 16.0095 8.56119 16.1462 8.56119C16.2829 8.56119 16.4154 8.60797 16.5219 8.69376L28.0746 18.2088C28.1343 18.2582 28.2031 18.2953 28.2771 18.3181C28.3511 18.3409 28.4288 18.3488 28.5059 18.3415C28.583 18.3342 28.6579 18.3118 28.7263 18.2756C28.7947 18.2393 28.8553 18.1899 28.9046 18.1303L30.157 16.6078C30.2063 16.5478 30.2433 16.4786 30.2658 16.4043C30.2883 16.33 30.2959 16.2519 30.2881 16.1747C30.2803 16.0974 30.2574 16.0224 30.2206 15.9541C30.1837 15.8857 30.1338 15.8253 30.0735 15.7763Z" fill="#375DD9"/>
</svg>
